<?xml version="1.0" encoding="UTF-8" standalone="no"?>
<svg width="157px" height="15px" viewBox="0 0 157 15" version="1.1" xmlns="http://www.w3.org/2000/svg" xmlns:xlink="http://www.w3.org/1999/xlink">
    <!-- Generator: Sketch 41 (35326) - http://www.bohemiancoding.com/sketch -->
    <title>CommerceBlock-green</title>
    <desc>Created with Sketch.</desc>
    <defs></defs>
    <g id="Platform" stroke="none" stroke-width="1" fill="none" fill-rule="evenodd" opacity="0.25">
        <g id="buyer-step1" transform="translate(-487.000000, -204.000000)" fill="#000000">
            <g id="CommerceBlock-green" transform="translate(487.000000, 204.000000)">
                <path d="M152.787394,8.63862475 L156.837273,4.50820152 L154.002181,4.50820152 L149.778721,9.00370051 L149.778721,0.627186869 L147.426164,0.627186869 L147.426164,14.652001 L149.778721,14.652001 L149.778721,11.7509854 L151.205939,10.2716505 L154.272285,14.652001 L156.972365,14.652001 L152.787394,8.63862475 Z M145.304621,12.9805924 L143.896708,11.5975338 C143.524113,11.9687141 143.128449,12.2728242 142.710557,12.5101035 C142.292865,12.7470636 141.807527,12.8654838 141.254542,12.8654838 C140.804849,12.8654838 140.393045,12.7789429 140.02009,12.6060207 C139.647495,12.4330985 139.326085,12.1995298 139.056021,11.9050354 C138.786158,11.6101818 138.577131,11.2643374 138.429303,10.8674621 C138.281515,10.4702677 138.207581,10.041154 138.207581,9.58028081 C138.207581,9.13173636 138.281515,8.71255758 138.429303,8.32158737 C138.577131,7.93117576 138.77991,7.58836364 139.036717,7.29386919 C139.293844,6.99909545 139.602558,6.76556667 139.962416,6.59264444 C140.322555,6.41972222 140.714454,6.33306162 141.138955,6.33306162 C141.730548,6.33306162 142.228623,6.45148182 142.633579,6.68876111 C143.038415,6.92572121 143.421022,7.22983131 143.78092,7.60101162 L145.227643,6.04499091 C144.751597,5.51976061 144.195769,5.0972303 143.559198,4.77704091 C142.922987,4.45685152 142.122368,4.29661717 141.158259,4.29661717 C140.399653,4.29661717 139.695636,4.4377399 139.04669,4.71946667 C138.397062,5.00131313 137.834666,5.38518131 137.362023,5.87206869 C136.889742,6.35875657 136.519951,6.9223298 136.253171,7.56270859 C135.986471,8.20304747 135.854783,8.88855202 135.854783,9.61826465 C135.854783,10.3486556 135.986471,11.0304495 136.253171,11.6646838 C136.519951,12.2985192 136.889742,12.8559879 137.362023,13.3360924 C137.834666,13.8163965 138.393898,14.1941601 139.036717,14.4697823 C139.679856,14.744846 140.380348,14.882697 141.138955,14.882697 C142.128936,14.882697 142.945336,14.7063833 143.588035,14.3544343 C144.230854,14.0020066 144.803143,13.5441657 145.304621,12.9805924 Z M131.689117,9.61826465 C131.689117,10.0668091 131.618307,10.4863071 131.476927,10.8770778 C131.338791,11.2674894 131.132928,11.6101818 130.866148,11.9050354 C130.596405,12.1995298 130.274995,12.4330985 129.898876,12.6060207 C129.519433,12.7789429 129.095293,12.8654838 128.622691,12.8654838 C128.175801,12.8654838 127.764718,12.7789429 127.385194,12.6060207 C127.009195,12.4330985 126.684381,12.1995298 126.40827,11.9050354 C126.134761,11.6101818 125.919527,11.2612652 125.768615,10.8574874 C125.614018,10.4541884 125.53692,10.028147 125.53692,9.58028081 C125.53692,9.13173636 125.60777,8.71255758 125.74911,8.32158737 C125.887486,7.93117576 126.093108,7.58836364 126.359888,7.29386919 C126.629992,6.99909545 126.951402,6.76556667 127.327401,6.59264444 C127.706604,6.41972222 128.124616,6.33306162 128.584202,6.33306162 C129.043747,6.33306162 129.461679,6.41972222 129.841203,6.59264444 C130.217202,6.76556667 130.541695,7.00252677 130.818007,7.30348485 C131.091275,7.60444293 131.306549,7.95343939 131.457422,8.35067374 C131.612059,8.74750909 131.689117,9.17039848 131.689117,9.61826465 Z M134.041954,9.58028081 C134.041954,8.85020909 133.906822,8.16470455 133.636958,7.52436566 C133.367094,6.88398687 132.991095,6.32380505 132.508801,5.84334141 C132.026667,5.36323687 131.454338,4.98527374 130.792254,4.70985101 C130.130251,4.43422879 129.40705,4.29661717 128.622691,4.29661717 C127.838291,4.29661717 127.11509,4.4377399 126.453007,4.71946667 C125.791003,5.00131313 125.219035,5.38214899 124.73674,5.86257273 C124.254486,6.34291667 123.875403,6.90625051 123.598931,7.55341212 C123.322258,8.20001515 123.184122,8.88855202 123.184122,9.61826465 C123.184122,10.3486556 123.319215,11.0304495 123.589078,11.6646838 C123.859142,12.2985192 124.235302,12.8559879 124.717436,13.3360924 C125.19937,13.8163965 125.771699,14.1941601 126.433822,14.4697823 C127.096146,14.744846 127.812539,14.882697 128.584202,14.882697 C129.36824,14.882697 130.094806,14.7416939 130.763418,14.4598475 C131.431989,14.1783202 132.007362,13.7969657 132.489296,13.3168611 C132.971551,12.8363975 133.350994,12.2762157 133.627426,11.6358369 C133.903778,10.995498 134.041954,10.3099934 134.041954,9.58028081 Z M120.715738,14.652001 L120.715738,0.627186869 L118.36258,0.627186869 L118.36258,14.652001 L120.715738,14.652001 Z M110.847887,12.5580621 L106.926332,12.5580621 L106.926332,8.86912121 L110.67735,8.86912121 C111.612742,8.86912121 112.307106,9.02935556 112.763488,9.34954495 C113.216585,9.66961465 113.444796,10.1181591 113.444796,10.6945399 C113.444796,11.3092237 113.213541,11.7734884 112.753956,12.087254 C112.290846,12.4012192 111.657719,12.5580621 110.847887,12.5580621 Z M110.156727,6.8905303 L106.926332,6.8905303 L106.926332,3.29770606 L110.327144,3.29770606 C111.098447,3.29770606 111.683472,3.44812525 112.088428,3.75247475 C112.49022,4.05343283 112.692758,4.48254646 112.692758,5.03626465 C112.692758,5.66738687 112.461383,6.13480354 112.001797,6.43576162 C111.538848,6.73987172 110.924866,6.8905303 110.156727,6.8905303 Z M110.619677,1.20344798 L104.573735,1.20344798 L104.573735,14.652001 L110.812482,14.652001 C111.554948,14.652001 112.236256,14.5719237 112.853643,14.4120086 C113.467505,14.2517343 113.994736,14.0150136 114.431693,13.7041207 C114.86893,13.3904747 115.203356,13.0032152 115.440898,12.541903 C115.678721,12.0810298 115.797713,11.5523682 115.797713,10.9503722 C115.797713,10.4894591 115.733351,10.082649 115.605148,9.73373232 C115.479347,9.38166364 115.296474,9.07731414 115.058611,8.82148182 C114.823832,8.56497121 114.540912,8.3440904 114.216459,8.1584803 C113.888561,7.97574293 113.528703,7.81263586 113.133039,7.67195202 C113.374066,7.54355707 113.615293,7.38974646 113.850072,7.20756768 C114.084531,7.02782273 114.290353,6.81994899 114.463934,6.58302879 C114.634151,6.34606869 114.775691,6.06729444 114.881986,5.74710505 C114.990965,5.42388333 115.045555,5.05888737 115.045555,4.64900505 C115.045555,3.58270455 114.646847,2.74374848 113.853156,2.12906465 C113.05606,1.51094949 111.979089,1.20344798 110.619677,1.20344798 L110.619677,1.20344798 Z" id="Fill-2"></path>
                <path d="M93.9861276,9.1381601 C94.0373128,8.65163182 94.1529,8.20304747 94.3298855,7.79352424 C94.5099548,7.38364192 94.7413296,7.02782273 95.0210459,6.72722374 C95.3036459,6.42582677 95.6284597,6.18922576 95.9980105,6.01626364 C96.3675212,5.84334141 96.7727173,5.75672071 97.2065099,5.75672071 C97.7045844,5.75672071 98.1419015,5.84956566 98.5179005,6.03549495 C98.8973439,6.22110505 99.2156694,6.46764091 99.4789648,6.77506263 C99.7394967,7.08256414 99.9451186,7.44109646 100.092907,7.85097879 C100.237571,8.26086111 100.33077,8.68993485 100.369259,9.1381601 L93.9861276,9.1381601 Z M93.9861276,10.2333076 L101.873776,10.2333076 C101.886472,10.1436146 101.89296,10.0603854 101.89296,9.98369949 L101.89296,9.77231465 C101.89296,9.04204343 101.790189,8.35677828 101.584367,7.71651919 C101.378424,7.0761404 101.07668,6.51899091 100.677932,6.04499091 C100.279224,5.57111061 99.7907219,5.19653889 99.2122651,4.92123586 C98.6337281,4.64585303 97.9778526,4.50820152 97.244999,4.50820152 C96.5507546,4.50820152 95.9110196,4.64246162 95.3263548,4.9116202 C94.7413296,5.1804596 94.2366867,5.54884697 93.8125464,6.01626364 C93.3880457,6.4837202 93.0569839,7.03464545 92.819161,7.66856061 C92.581298,8.30271515 92.4623064,8.97800556 92.4623064,9.6953096 C92.4623064,10.4640434 92.5973985,11.1684202 92.8642184,11.808799 C93.1308781,12.4491379 93.491137,12.9966717 93.9442342,13.4514404 C94.3972112,13.9062091 94.9244429,14.258198 95.5287727,14.5081253 C96.1331026,14.7577333 96.7759214,14.882697 97.4574296,14.882697 C98.4089217,14.882697 99.2056967,14.7129667 99.8484755,14.373546 C100.491655,14.0342449 101.063824,13.5826283 101.565062,13.0189354 L100.639363,12.1929864 C100.227919,12.6155167 99.7749418,12.9549374 99.2799513,13.2113283 C98.7849207,13.4675197 98.1899227,13.5953162 97.4959186,13.5953162 C97.0587217,13.5953162 96.6410296,13.521902 96.2423217,13.3747545 C95.8436939,13.2274874 95.4837153,13.0093197 95.162426,12.7213687 C94.8410166,12.4330985 94.5774008,12.0810298 94.3714584,11.6646838 C94.1658365,11.2482581 94.0373128,10.7712258 93.9861276,10.2333076 Z M90.9196612,12.9422495 L89.9744171,12.0584071 C89.5760296,12.4812566 89.1291804,12.8333652 88.6341898,13.1152116 C88.1391992,13.3969384 87.5702745,13.5377419 86.9272554,13.5377419 C86.400224,13.5377419 85.9148857,13.4387924 85.4712406,13.2401753 C85.0277556,13.0415581 84.6421043,12.7693273 84.3141265,12.4169394 C83.9865893,12.0649505 83.7291013,11.6519162 83.5427839,11.1810682 C83.3565066,10.7071879 83.263388,10.2045803 83.263388,9.66658232 C83.263388,9.12866414 83.3531023,8.62900909 83.5332518,8.16155253 C83.7129607,7.69728788 83.9638804,7.28740556 84.2852898,6.93509747 C84.6066992,6.58302879 84.9858622,6.31079798 85.4230992,6.1125399 C85.8602962,5.91392273 86.3295339,5.81461414 86.8309727,5.81461414 C87.512601,5.81461414 88.087974,5.96188131 88.5572117,6.25637576 C89.0264495,6.5511096 89.4602421,6.90321818 89.85895,7.31306061 L90.8423628,6.27548737 C90.610988,6.03234293 90.3600684,5.80160707 90.0902046,5.58379848 C89.8201406,5.36630909 89.5244839,5.17730758 89.2030745,5.01703333 C88.8816651,4.85711818 88.5280145,4.73215455 88.1423633,4.64246162 C87.756712,4.55276869 87.3259633,4.50820152 86.8502773,4.50820152 C86.1174237,4.50820152 85.4391997,4.64585303 84.8156855,4.92123586 C84.1921712,5.19653889 83.6521232,5.57111061 83.1956217,6.04499091 C82.7392403,6.51899091 82.3823857,7.07298838 82.1252582,7.70690354 C81.8682107,8.34105808 81.7396069,9.01012424 81.7396069,9.7148601 C81.7396069,10.4189177 81.8682107,11.0849515 82.1252582,11.7125227 C82.3823857,12.3402535 82.7392403,12.8877475 83.1956217,13.355204 C83.6521232,13.8226207 84.1921712,14.1941601 84.8156855,14.4697823 C85.4391997,14.744846 86.1174237,14.882697 86.8502773,14.882697 C87.7885926,14.882697 88.5761559,14.7002788 89.2127268,14.3383551 C89.8489773,13.9732793 90.4181824,13.5090146 90.9196612,12.9422495 Z M76.4557559,10.6945399 C76.4557559,9.95146111 76.5581663,9.29504293 76.7641087,8.72524545 C76.9699309,8.15508889 77.2525309,7.67805657 77.6127497,7.29386919 C77.9726482,6.90964192 78.3937446,6.62137172 78.8756786,6.42933788 C79.3578528,6.23714444 79.869064,6.14126717 80.4090319,6.14126717 L80.5245791,6.14126717 L80.5245791,4.54654444 C80.0491334,4.53389646 79.6056885,4.59147071 79.1938839,4.71946667 C78.7824798,4.84762222 78.4033969,5.03626465 78.0561946,5.28623182 C77.7090324,5.53615909 77.4003592,5.83372576 77.1304954,6.1796101 C76.8606316,6.52545455 76.6355048,6.90321818 76.4557559,7.31306061 L76.4557559,4.71946667 L74.9704638,4.71946667 L74.9704638,14.652001 L76.4557559,14.652001 L76.4557559,10.6945399 Z M64.4601548,9.1381601 C64.5113401,8.65163182 64.6269273,8.20304747 64.8039128,7.79352424 C64.9839821,7.38364192 65.2153569,7.02782273 65.4950732,6.72722374 C65.7776732,6.42582677 66.102487,6.18922576 66.4719977,6.01626364 C66.8415485,5.84334141 67.2467446,5.75672071 67.6806574,5.75672071 C68.1787319,5.75672071 68.6159288,5.84956566 68.9919278,6.03549495 C69.3713712,6.22110505 69.6896967,6.46764091 69.9529921,6.77506263 C70.213524,7.08256414 70.4191459,7.44109646 70.5669342,7.85097879 C70.7115985,8.26086111 70.8047972,8.68993485 70.8432862,9.1381601 L64.4601548,9.1381601 Z M64.4601548,10.2333076 L72.3478028,10.2333076 C72.360499,10.1436146 72.3670673,10.0603854 72.3670673,9.98369949 L72.3670673,9.77231465 C72.3670673,9.04204343 72.2642163,8.35677828 72.0583941,7.71651919 C71.8524518,7.0761404 71.5507074,6.51899091 71.1519594,6.04499091 C70.7532515,5.57111061 70.2648293,5.19653889 69.6862923,4.92123586 C69.1077554,4.64585303 68.452,4.50820152 67.7191464,4.50820152 C67.0247819,4.50820152 66.3850469,4.64246162 65.8003821,4.9116202 C65.2153569,5.1804596 64.7104737,5.54884697 64.2865737,6.01626364 C63.862073,6.4837202 63.5310112,7.03464545 63.2931482,7.66856061 C63.0553253,8.30271515 62.9364538,8.97800556 62.9364538,9.6953096 C62.9364538,10.4640434 63.0714258,11.1684202 63.3382457,11.808799 C63.6049054,12.4491379 63.9651643,12.9966717 64.4182615,13.4514404 C64.8712385,13.9062091 65.3985903,14.258198 66.0028,14.5081253 C66.6071298,14.7577333 67.2499087,14.882697 67.931577,14.882697 C68.882949,14.882697 69.6798041,14.7129667 70.3225028,14.373546 C70.9656821,14.0342449 71.5379712,13.5826283 72.0390895,13.0189354 L71.1134704,12.1929864 C70.7020663,12.6155167 70.2489291,12.9549374 69.7539385,13.2113283 C69.258948,13.4675197 68.6640702,13.5953162 67.9700661,13.5953162 C67.5328291,13.5953162 67.115177,13.521902 66.7164291,13.3747545 C66.3177212,13.2274874 65.9578227,13.0093197 65.6364133,12.7213687 C65.3150439,12.4330985 65.0514281,12.0810298 64.8454457,11.6646838 C64.6399839,11.2482581 64.5113401,10.7712258 64.4601548,10.2333076 Z M53.120149,6.48711162 C52.8499648,5.92353838 52.4518176,5.4526904 51.9242255,5.07496667 C51.3973143,4.69696364 50.7287426,4.50820152 49.918951,4.50820152 C49.4944503,4.50820152 49.1217355,4.55923232 48.8000857,4.66169293 C48.4786763,4.76439293 48.1896281,4.90168535 47.9325005,5.07496667 C47.6753329,5.24788889 47.4471622,5.44953838 47.2477883,5.68003485 C47.0484143,5.91077071 46.8655413,6.14749141 46.6982082,6.39087525 L46.6982082,4.71946667 L45.2131964,4.71946667 L45.2131964,14.652001 L46.6982082,14.652001 L46.6982082,8.98446919 C46.6982082,8.52323687 46.7689383,8.10409798 46.9102783,7.72633434 C47.0518186,7.34837121 47.2477883,7.01856616 47.4983474,6.7367197 C47.7492671,6.45499293 48.0418398,6.23714444 48.3759454,6.08369293 C48.7102913,5.92964293 49.0767582,5.85295707 49.4751457,5.85295707 C50.2722411,5.85295707 50.8992798,6.1125399 51.3556612,6.63130657 C51.8121628,7.14975404 52.0401332,7.87667374 52.0401332,8.81154697 L52.0401332,14.652001 L53.5058003,14.652001 L53.5058003,8.92689495 C53.5058003,8.44000758 53.5799347,8.00478939 53.727763,7.62060202 C53.8755913,7.23641465 54.0749253,6.91283384 54.3255245,6.65009899 C54.5761638,6.38748384 54.8686564,6.18922576 55.2030824,6.05460657 C55.5372281,5.92002727 55.8908786,5.85295707 56.2637936,5.85295707 C57.0737454,5.85295707 57.706912,6.1125399 58.1632934,6.63130657 C58.6197949,7.14975404 58.8480056,7.88944141 58.8480056,8.85020909 L58.8480056,14.652001 L60.3329773,14.652001 L60.3329773,8.50436465 C60.3329773,7.26175051 60.0050796,6.28546212 59.3492441,5.57430253 C58.693689,4.86334242 57.7872944,4.50820152 56.6299401,4.50820152 C56.1930635,4.50820152 55.7974395,4.55923232 55.4439893,4.66169293 C55.0903788,4.76439293 54.7723737,4.90507677 54.4895735,5.08458232 C54.2066531,5.26360909 53.9525694,5.47499394 53.727763,5.71837778 C53.5026362,5.96188131 53.3002184,6.21795303 53.120149,6.48711162 Z M34.7798656,6.48711162 C34.5096814,5.92353838 34.1112939,5.4526904 33.5840622,5.07496667 C33.0570709,4.69696364 32.3885793,4.50820152 31.5783071,4.50820152 C31.1541668,4.50820152 30.7815722,4.55923232 30.4598023,4.66169293 C30.1383929,4.76439293 29.8490242,4.90168535 29.5919768,5.07496667 C29.3351696,5.24788889 29.1068788,5.44953838 28.9075048,5.68003485 C28.7081709,5.91077071 28.5250176,6.14749141 28.3579247,6.39087525 L28.3579247,4.71946667 L26.8727128,4.71946667 L26.8727128,14.652001 L28.3579247,14.652001 L28.3579247,8.98446919 C28.3579247,8.52323687 28.4284145,8.10409798 28.5699949,7.72633434 C28.7113349,7.34837121 28.9075048,7.01856616 29.1581842,6.7367197 C29.4087434,6.45499293 29.7011959,6.23714444 30.035662,6.08369293 C30.3697676,5.92964293 30.7362745,5.85295707 31.1349824,5.85295707 C31.9320778,5.85295707 32.558636,6.1125399 33.0151776,6.63130657 C33.4716791,7.14975404 33.6998497,7.87667374 33.6998497,8.81154697 L33.6998497,14.652001 L35.1655569,14.652001 L35.1655569,8.92689495 C35.1655569,8.44000758 35.239451,8.00478939 35.3872793,7.62060202 C35.5350676,7.23641465 35.7344416,6.91283384 35.9853612,6.65009899 C36.2359204,6.38748384 36.5284931,6.18922576 36.8625987,6.05460657 C37.1967043,5.92002727 37.5507153,5.85295707 37.9233099,5.85295707 C38.733462,5.85295707 39.3662681,6.1125399 39.8227696,6.63130657 C40.2793112,7.14975404 40.5074819,7.88944141 40.5074819,8.85020909 L40.5074819,14.652001 L41.9924536,14.652001 L41.9924536,8.50436465 C41.9924536,7.26175051 41.6648362,6.28546212 41.0089607,5.57430253 C40.3535258,4.86334242 39.4467707,4.50820152 38.2897768,4.50820152 C37.8525798,4.50820152 37.4572763,4.55923232 37.1035056,4.66169293 C36.7502156,4.76439293 36.43185,4.90507677 36.1489296,5.08458232 C35.8661293,5.26360909 35.6124061,5.47499394 35.3872793,5.71837778 C35.162473,5.96188131 34.9596946,6.21795303 34.7798656,6.48711162 Z M22.668437,9.70492525 C22.668437,10.2429232 22.5787628,10.7424985 22.3985732,11.2099152 C22.2185439,11.6741798 21.9679847,12.0810298 21.6462148,12.4268742 C21.3248054,12.7727187 20.9391541,13.0415581 20.4892209,13.2401753 C20.0393278,13.4387924 19.5443372,13.5377419 19.0042492,13.5377419 C18.4773781,13.5377419 17.9885954,13.435401 17.5385821,13.2305596 C17.088649,13.0255187 16.6995934,12.7532879 16.371936,12.4074035 C16.0440783,12.0615591 15.7869107,11.6519162 15.600273,11.1810682 C15.4139556,10.7071879 15.320877,10.2045803 15.320877,9.66658232 C15.320877,9.12866414 15.4109117,8.62900909 15.5907408,8.16155253 C15.7708102,7.69728788 16.0182855,7.28740556 16.3334469,6.93509747 C16.6483681,6.58302879 17.0308554,6.31079798 17.4805482,6.1125399 C17.9308418,5.91392273 18.4258324,5.81461414 18.9657602,5.81461414 C19.4927916,5.81461414 19.9815342,5.91699495 20.4314273,6.12215556 C20.8813605,6.32683737 21.2736202,6.6021404 21.6077258,6.95456818 C21.9421918,7.30651717 22.2027638,7.71651919 22.3890411,8.19039949 C22.5753584,8.6642798 22.668437,9.16732626 22.668437,9.70492525 Z M24.1922582,9.67619798 C24.1922582,8.97178131 24.063414,8.30574747 23.8062464,7.67805657 C23.5491189,7.05044545 23.1892204,6.50295152 22.7265911,6.03549495 C22.2636013,5.56807828 21.713901,5.19653889 21.0776505,4.92123586 C20.4410796,4.64585303 19.7501594,4.50820152 19.0042492,4.50820152 C18.2456429,4.50820152 17.5482344,4.64585303 16.9119839,4.92123586 C16.2754531,5.19653889 15.7257128,5.57111061 15.2630834,6.04499091 C14.8000936,6.51899091 14.4398747,7.07298838 14.1827472,7.70690354 C13.9256997,8.34105808 13.7970559,9.01012424 13.7970559,9.7148601 C13.7970559,10.4189177 13.9256997,11.0849515 14.1827472,11.7125227 C14.4398747,12.3402535 14.8000936,12.8877475 15.2630834,13.355204 C15.7257128,13.8226207 16.272249,14.1941601 16.9020112,14.4697823 C17.5320939,14.744846 18.2198901,14.882697 18.9657602,14.882697 C19.7116704,14.882697 20.4056745,14.744846 21.0484934,14.4697823 C21.6912722,14.1941601 22.2442967,13.8195884 22.706926,13.3455884 C23.170036,12.8717081 23.5333388,12.31795 23.7969546,11.6837955 C24.0602099,11.05 24.1922582,10.3805747 24.1922582,9.67619798 Z M12.1966171,12.5197192 L11.1939398,11.5397202 C10.5508806,12.1542843 9.89536556,12.6317157 9.22679388,12.9709768 C8.55822219,13.3103975 7.76108673,13.4801677 6.83550765,13.4801677 C6.08959745,13.4801677 5.39863724,13.3360924 4.76206633,13.0476626 C4.12585587,12.7597116 3.57275128,12.3659086 3.10351352,11.8663333 C2.63431582,11.366798 2.26792908,10.77745 2.00431327,10.0987283 C1.74093776,9.42000657 1.60900969,8.68993485 1.60900969,7.90855303 C1.60900969,7.1274904 1.74093776,6.40049091 2.00431327,5.72799343 C2.26792908,5.05573535 2.63431582,4.46953939 3.10351352,3.96996414 C3.57275128,3.47062828 4.12585587,3.07997727 4.76206633,2.79813081 C5.39863724,2.51628434 6.08959745,2.37560051 6.83550765,2.37560051 C7.76108673,2.37560051 8.55477781,2.54852273 9.21714158,2.89440707 C9.879225,3.24025152 10.4996954,3.68201313 11.0781122,4.21993131 L12.119639,3.10567222 C11.785173,2.78548283 11.4380107,2.49402071 11.0781122,2.23140556 C10.7182138,1.9687904 10.3261143,1.74483737 9.90185383,1.55890808 C9.47735306,1.37333788 9.0177676,1.22910303 8.52277704,1.12676212 C8.02790663,1.02442121 7.47171811,0.973071212 6.85433163,0.973071212 C5.86447066,0.973071212 4.95178801,1.15548939 4.11620357,1.52056515 C3.28049898,1.88556111 2.56050179,2.38521616 1.95617194,3.01901162 C1.35184209,3.65316616 0.879240051,4.39285354 0.538646173,5.23791414 C0.197932143,6.08369293 0.027515051,6.98644747 0.027515051,7.94689596 C0.027515051,8.92043131 0.197932143,9.82988889 0.538646173,10.6753086 C0.879240051,11.5204889 1.35184209,12.253952 1.95617194,12.8747404 C2.56050179,13.496247 3.27405077,13.9862864 4.09689898,14.3444596 C4.91978724,14.703351 5.81973367,14.882697 6.79665816,14.882697 C7.41392449,14.882697 7.97319694,14.8249232 8.47475587,14.7097747 C8.97623469,14.5944268 9.4454324,14.4341525 9.88230893,14.2294707 C10.3195059,14.0243101 10.7275457,13.7780535 11.1070691,13.4897833 C11.4865125,13.2018323 11.8494548,12.8782515 12.1966171,12.5197192 L12.1966171,12.5197192 Z" id="Fill-3"></path>
            </g>
        </g>
    </g>
</svg>