<?xml version="1.0" encoding="UTF-8" standalone="no"?>
<svg width="103px" height="129px" viewBox="0 0 103 129" version="1.1" xmlns="http://www.w3.org/2000/svg" xmlns:xlink="http://www.w3.org/1999/xlink">
    <!-- Generator: Sketch 41 (35326) - http://www.bohemiancoding.com/sketch -->
    <title>file-commerceblock</title>
    <desc>Created with Sketch.</desc>
    <defs></defs>
    <g id="Platform" stroke="none" stroke-width="1" fill="none" fill-rule="evenodd">
        <g id="buyer-step1" transform="translate(-669.000000, -436.000000)">
            <g id="file-commerceblock" transform="translate(669.000000, 436.000000)">
                <g id="description" fill="#BFBFBF">
                    <path d="M64.375,0 L12.875,0 C5.79375,0 0.064375,5.805 0.064375,12.9 L0,116.1 C0,123.195 5.729375,129 12.810625,129 L90.125,129 C97.20625,129 103,123.195 103,116.1 L103,38.7 L64.375,0 Z M77.25,103.2 L25.75,103.2 L25.75,90.3 L77.25,90.3 L77.25,103.2 Z M77.25,77.4 L25.75,77.4 L25.75,64.5 L77.25,64.5 L77.25,77.4 Z M57.9375,45.15 L57.9375,9.675 L93.34375,45.15 L57.9375,45.15 Z" id="Shape"></path>
                </g>
                <g id="CommerceBlock-White-BG" transform="translate(14.000000, 17.000000)" fill="#FFFFFF">
                    <g id="Group-12">
                        <path d="M7.82286628,5.76538561 L7.8228314,5.76439242 L7.82286628,5.76538561 Z M13.8604709,6.7448197 L13.0109651,6.25485 L9.99256395,4.51394167 L7.82286628,5.76538561 L6.97426744,6.25485 L3.95586628,7.99575833 L0.0871046512,5.76439242 L5.03991279,2.90782727 L9.99256395,0.0512621212 L13.8604709,2.28208788 L14.9453721,2.90782727 L17.7283256,4.51394167 L19.8980233,5.76439242 L19.8980233,5.76538561 L16.029314,7.99575833 L13.8604709,6.7448197 Z" id="Fill-4"></path>
                        <polygon id="Fill-5" points="16.0292791 14.959322 16.0292791 11.4775576 16.0292791 7.99575833 19.8980756 5.76533333 19.8980756 11.4775576 19.8980756 17.189747 19.8980756 17.1906879"></polygon>
                        <polygon id="Fill-6" points="3.95581395 14.959322 0.0871046512 17.1906879 5.03996512 20.0472356 9.99261628 22.903853 13.8604186 20.672975 12.7755349 20.0472356 9.99261628 18.4411735 7.82286628 17.1906879 7.82286628 17.189747 6.97421512 16.7002303"></polygon>
                        <polygon id="Fill-7" points="3.95581395 11.4775576 3.95581395 14.959322 0.0871046512 17.1906879 3.95581395 14.959322 0.0871046512 17.1906879 0.0871046512 17.1318636 0.0871046512 11.4775576 0.0871046512 5.76439242 3.95581395 7.99575833"></polygon>
                        <path d="M22.1770291,17.189747 L22.1771337,17.1906879 L22.1770291,17.189747 Z M16.1394767,16.2102606 L16.9889302,16.7002303 L20.0073314,18.4411735 L22.1770291,17.189747 L23.0256977,16.7002303 L26.0440988,14.959322 L29.9127907,17.1906879 L24.9599826,20.0472356 L20.0073314,22.9038008 L16.1394767,20.672975 L15.0545756,20.0472356 L12.2715698,18.4411735 L10.1019244,17.1906879 L10.1019244,17.189747 L13.9706337,14.959322 L16.1394767,16.2102606 Z" id="Fill-8"></path>
                        <polygon id="Fill-9" points="13.970686 7.99575833 13.970686 11.4775576 13.970686 14.959322 10.1018721 17.189747 10.1018721 11.4775576 10.1018721 5.76533333"></polygon>
                        <polygon id="Fill-10" points="26.0440465 7.99575833 29.912843 5.76439242 24.9599826 2.90782727 20.0073837 0.0512272727 16.1394244 2.28208788 17.2243779 2.90782727 20.0073837 4.51388939 22.1770814 5.76439242 22.1770814 5.76533333 23.0256453 6.25490227"></polygon>
                        <polygon id="Fill-11" points="26.0440465 11.4775576 26.0440465 7.99575833 29.912843 5.76439242 29.912843 11.4775576 29.912843 17.1906879 26.0440465 14.959322"></polygon>
                    </g>
                </g>
            </g>
        </g>
    </g>
</svg>