<?xml version="1.0" encoding="UTF-8" standalone="no"?>
<svg width="25px" height="24px" viewBox="0 0 25 24" version="1.1" xmlns="http://www.w3.org/2000/svg" xmlns:xlink="http://www.w3.org/1999/xlink">
    <!-- Generator: Sketch 41 (35326) - http://www.bohemiancoding.com/sketch -->
    <title>icon-lock-green</title>
    <desc>Created with Sketch.</desc>
    <defs></defs>
    <g id="Platform" stroke="none" stroke-width="1" fill="none" fill-rule="evenodd" opacity="0.25">
        <g id="buyer-step1" transform="translate(-967.000000, -199.000000)" stroke="#000000">
            <g id="icon-lock-green" transform="translate(968.000000, 200.000000)">
                <path d="M14.6724138,22 L8.32758621,22 C6.79451724,22 5.55172414,20.7464 5.55172414,19.2 L5.55172414,14.1168 C5.55172414,13.8312 5.78093103,13.6 6.06406897,13.6 L16.935931,13.6 C17.219069,13.6 17.4482759,13.8312 17.4482759,14.1168 L17.4482759,19.2 C17.4482759,20.7464 16.2054828,22 14.6724138,22 L14.6724138,22 Z" id="Shape"></path>
                <path d="M12.6896552,17.2 C12.6896552,17.8628 12.1570862,18.4 11.5,18.4 C10.8429138,18.4 10.3103448,17.8628 10.3103448,17.2 C10.3103448,16.5372 10.8429138,16 11.5,16 C12.1570862,16 12.6896552,16.5372 12.6896552,17.2 L12.6896552,17.2 Z" id="Shape"></path>
                <path id="Shape"></path>
                <path d="M15.862069,13.6 L14.2758621,13.6 L14.2758621,12 C14.2758621,10.4564 13.0302931,9.2 11.5,9.2 C9.9697069,9.2 8.72413793,10.4564 8.72413793,12 L8.72413793,13.6 L7.13793103,13.6 L7.13793103,12 C7.13793103,9.574 9.09491379,7.6 11.5,7.6 C13.9050862,7.6 15.862069,9.574 15.862069,12 L15.862069,13.6 L15.862069,13.6 Z" id="Shape"></path>
                <path d="M19.4323828,6.4 C19.4323828,6.4 18.4271241,6.25 17.4484345,6.4" id="Shape"></path>
                <path d="M2.77586207,5.6 C2.77586207,3.8328 4.19631034,2.4 5.94827586,2.4 C7.70024138,2.4 9.12068966,3.8328 9.12068966,5.6" id="Shape"></path>
                <path d="M19.4323828,6.4 C19.3867793,2.9204 16.5799862,0 13.1196759,0 C10.9152448,0 8.84524483,1.202 7.70277931,2.9344 C7.19995172,2.5972 6.5971931,2.4 5.94843448,2.4 C4.19607241,2.4 2.77602069,3.8328 2.77602069,5.6 C2.77602069,5.6612 2.78157241,5.7208 2.78514138,5.7816 C2.78117586,5.8544 2.77602069,5.928 2.77602069,6 C1.19417586,6.7648 0.00015862069,8.5828 0.00015862069,10.462 C0.00015862069,13.068 2.11377931,15.2 4.69731379,15.2 L5.55188276,15.2 L5.55188276,14.1168 C5.55188276,13.8312 5.78108966,13.6 6.06383103,13.6 L16.9360897,13.6 C17.218831,13.6 17.4484345,13.8312 17.4484345,14.1168 L17.4484345,15.2 L18.4850207,15.2 C20.6680379,15.2 22.6174862,13.646 22.9482103,11.4692 C23.3170034,9.0436 21.6669517,6.8248 19.4323828,6.4 L19.4323828,6.4 Z" id="Shape"></path>
            </g>
        </g>
    </g>
</svg>