<?xml version="1.0" encoding="UTF-8" standalone="no"?>
<svg width="79px" height="40px" viewBox="0 0 79 40" version="1.1" xmlns="http://www.w3.org/2000/svg" xmlns:xlink="http://www.w3.org/1999/xlink">
    <!-- Generator: Sketch 41 (35326) - http://www.bohemiancoding.com/sketch -->
    <title>logo-commcereblock-white</title>
    <desc>Created with Sketch.</desc>
    <defs></defs>
    <g id="Platform" stroke="none" stroke-width="1" fill="none" fill-rule="evenodd">
        <g id="invoice-list" transform="translate(-139.000000, -12.000000)" fill="#FFFFFF">
            <g id="logo-commcereblock-white" transform="translate(139.000000, 12.000000)">
                <g id="Group-12">
                    <path d="M76.8802809,36.7790505 L78.9181181,34.687697 L77.4915434,34.687697 L75.3663628,36.963899 L75.3663628,32.7226263 L74.1825921,32.7226263 L74.1825921,39.823798 L75.3663628,39.823798 L75.3663628,38.3549293 L76.0845171,37.605899 L77.6274556,39.823798 L78.9860944,39.823798 L76.8802809,36.7790505 Z M73.1150643,38.9775152 L72.4066237,38.2772323 C72.2191398,38.4651717 72.0200477,38.6191515 71.8097707,38.7392929 C71.5995944,38.8592727 71.3553796,38.9192323 71.0771263,38.9192323 C70.8508477,38.9192323 70.6436339,38.8754141 70.4559686,38.7878586 C70.2684847,38.700303 70.1067564,38.5820404 69.9708643,38.4329293 C69.835073,38.2836364 69.7298941,38.1085253 69.6555092,37.9075758 C69.5811444,37.7064646 69.5439418,37.4891919 69.5439418,37.2558384 C69.5439418,37.0287273 69.5811444,36.8164848 69.6555092,36.6185253 C69.7298941,36.4208485 69.8319291,36.2472727 69.9611505,36.0981616 C70.0905332,35.9489091 70.245873,35.8306667 70.4269482,35.7431111 C70.6081645,35.6555556 70.8053622,35.6116768 71.0189645,35.6116768 C71.3166454,35.6116768 71.5672689,35.6716364 71.7710365,35.7917778 C71.9747436,35.9117576 72.1672658,36.0657374 72.3483612,36.2536768 L73.0763301,35.4658182 C72.8367908,35.1998788 72.5571066,34.9859394 72.2367939,34.8238182 C71.9166625,34.661697 71.5138028,34.5805657 71.0286783,34.5805657 C70.6469592,34.5805657 70.2927087,34.6520202 69.9661686,34.7946667 C69.639286,34.9373737 69.3562967,35.1317374 69.1184704,35.3782626 C68.8808255,35.6246869 68.6947523,35.9100404 68.5605128,36.2342828 C68.4263135,36.5585051 68.3600503,36.905596 68.3600503,37.2750707 C68.3600503,37.6448889 68.4263135,37.990101 68.5605128,38.3112323 C68.6947523,38.6321616 68.8808255,38.9144242 69.1184704,39.1575152 C69.3562967,39.4007071 69.6376939,39.5919798 69.9611505,39.7315354 C70.2847684,39.8708081 70.6372454,39.9406061 71.0189645,39.9406061 C71.5171079,39.9406061 71.9279079,39.8513333 72.2513041,39.6731313 C72.5747607,39.4946869 72.8627278,39.2628687 73.1150643,38.9775152 Z M66.2639505,37.2750707 C66.2639505,37.5021818 66.2283199,37.7145859 66.1571796,37.9124444 C66.0876717,38.1101212 65.9840849,38.2836364 65.8498454,38.4329293 C65.7141145,38.5820404 65.5523862,38.700303 65.3631288,38.7878586 C65.1721987,38.8754141 64.9587778,38.9192323 64.7209717,38.9192323 C64.4961038,38.9192323 64.2892528,38.8754141 64.0982824,38.7878586 C63.9090855,38.700303 63.7456441,38.5820404 63.6067089,38.4329293 C63.4690837,38.2836364 63.3607811,38.1069697 63.2848444,37.9025253 C63.2070536,37.6983232 63.1682589,37.4826061 63.1682589,37.2558384 C63.1682589,37.0287273 63.2039097,36.8164848 63.2750298,36.6185253 C63.3446587,36.4208485 63.4481245,36.2472727 63.582364,36.0981616 C63.7182763,35.9489091 63.8800046,35.8306667 64.0692015,35.7431111 C64.2600107,35.6555556 64.4703482,35.6116768 64.7016046,35.6116768 C64.9328408,35.6116768 65.143138,35.6555556 65.3341084,35.7431111 C65.5233054,35.8306667 65.6865855,35.9506465 65.8256214,36.1030303 C65.9631258,36.2554141 66.0714485,36.4321212 66.1473651,36.6332525 C66.225176,36.8341818 66.2639505,37.048303 66.2639505,37.2750707 Z M67.4478622,37.2558384 C67.4478622,36.8861818 67.3798658,36.5390909 67.2440745,36.2148687 C67.1082832,35.8906263 66.9190862,35.6069899 66.6764031,35.3637172 C66.4338005,35.1206263 66.1458133,34.9292525 65.812663,34.789798 C65.4795531,34.6502424 65.1156492,34.5805657 64.7209717,34.5805657 C64.326274,34.5805657 63.9623702,34.6520202 63.6292199,34.7946667 C63.2961099,34.9373737 63.0083041,35.130202 62.7656209,35.3734545 C62.5229579,35.6166667 62.3322092,35.901899 62.1930926,36.2295758 C62.0538753,36.5569697 61.9843673,36.905596 61.9843673,37.2750707 C61.9843673,37.6448889 62.0523436,37.990101 62.1881349,38.3112323 C62.324027,38.6321616 62.5133046,38.9144242 62.7559071,39.1575152 C62.9984089,39.4007071 63.2863962,39.5919798 63.6195666,39.7315354 C63.9528378,39.8708081 64.3133156,39.9406061 64.7016046,39.9406061 C65.0961209,39.9406061 65.4617176,39.8692121 65.7981528,39.7265051 C66.1345679,39.5839596 66.4240867,39.3908687 66.6665885,39.1477778 C66.9092515,38.9045051 67.1001816,38.6208687 67.2392781,38.2966263 C67.3783342,37.972404 67.4478622,37.6253131 67.4478622,37.2558384 Z M60.742314,39.823798 L60.742314,32.7226263 L59.5582411,32.7226263 L59.5582411,39.823798 L60.742314,39.823798 Z M55.7769625,38.7635758 L53.8036957,38.7635758 L53.8036957,36.8957576 L55.6911508,36.8957576 C56.1618255,36.8957576 56.5112191,36.9768889 56.7408633,37.1390101 C56.9688548,37.3010707 57.083687,37.5281818 57.083687,37.8200202 C57.083687,38.1312525 56.9673232,38.3663232 56.7360668,38.5251919 C56.503037,38.6841616 56.1844574,38.7635758 55.7769625,38.7635758 Z M55.4291811,35.8939394 L53.8036957,35.8939394 L53.8036957,34.0747879 L55.5149324,34.0747879 C55.9030401,34.0747879 56.1974158,34.1509495 56.4011834,34.3050505 C56.6033589,34.4574343 56.705273,34.6747071 56.705273,34.9550707 C56.705273,35.2746263 56.5888487,35.5112929 56.3575923,35.6636768 C56.1246431,35.8176566 55.8156967,35.8939394 55.4291811,35.8939394 Z M55.6621304,33.014404 L52.6199048,33.014404 L52.6199048,39.823798 L55.7591472,39.823798 C56.1327446,39.823798 56.4755684,39.7832525 56.7862278,39.7022828 C57.0951138,39.6211313 57.3604087,39.5012727 57.5802786,39.3438586 C57.8002895,39.1850505 57.9685676,38.9889697 58.0880954,38.7553939 C58.2077643,38.5220404 58.267639,38.2543636 58.267639,37.9495556 C58.267639,37.7161818 58.2352531,37.510202 58.1707431,37.3335354 C58.1074423,37.1552727 58.0154235,37.0011717 57.8957344,36.8716364 C57.7775972,36.7417576 57.635236,36.6299192 57.471976,36.5359394 C57.3069829,36.4434141 57.1259077,36.3608283 56.9268156,36.289596 C57.0480967,36.2245859 57.1694786,36.1467071 57.2876158,36.0544646 C57.4055918,35.9634545 57.5091584,35.858202 57.5965018,35.7382424 C57.6821523,35.6182626 57.7533732,35.4771111 57.8068594,35.3149899 C57.8616959,35.1513333 57.8891645,34.9665253 57.8891645,34.7589899 C57.8891645,34.2190909 57.6885408,33.794303 57.2891676,33.4830707 C56.8880814,33.170101 56.3461656,33.014404 55.6621304,33.014404 L55.6621304,33.014404 Z" id="Fill-2"></path>
                    <path d="M47.2923827,37.0319798 C47.3181383,36.7856364 47.3763,36.5585051 47.4653564,36.3511515 C47.5559645,36.1436162 47.6723888,35.9634545 47.8131378,35.8112525 C47.9553378,35.6586465 48.1187791,35.5388485 48.3047314,35.4512727 C48.4906635,35.3637172 48.694552,35.3198586 48.9128298,35.3198586 C49.1634533,35.3198586 49.3835046,35.3668687 49.5727015,35.4610101 C49.7636316,35.5549899 49.9238082,35.6798182 50.0562944,35.8354747 C50.1873901,35.9911717 50.2908559,36.1727071 50.3652207,36.3802424 C50.4380135,36.5877778 50.4849097,36.8050303 50.5042768,37.0319798 L47.2923827,37.0319798 Z M47.2923827,37.5864848 L51.2613265,37.5864848 C51.2677151,37.5410707 51.2709798,37.4989293 51.2709798,37.460101 L51.2709798,37.3530707 C51.2709798,36.9833131 51.2192671,36.6363434 51.1157005,36.3121616 C51.0120735,35.9879192 50.8602403,35.7058182 50.6595964,35.4658182 C50.4589727,35.2258788 50.2131658,35.0362222 49.9220952,34.8968283 C49.6309842,34.7573939 49.3009577,34.687697 48.9321969,34.687697 C48.5828638,34.687697 48.2609589,34.7556768 47.9667645,34.8919596 C47.6723888,35.0280808 47.4184602,35.2146061 47.2050393,35.4512727 C46.991437,35.6879596 46.8248518,35.9669091 46.7051829,36.2878788 C46.5854939,36.6089697 46.5256191,36.9508889 46.5256191,37.3140808 C46.5256191,37.7033131 46.5935954,38.0599596 46.7278551,38.384202 C46.8620342,38.7084242 47.043311,38.9856566 47.2713026,39.2159192 C47.4992337,39.4461818 47.7645286,39.624404 48.0686181,39.7509495 C48.3727077,39.8773333 48.6961643,39.9406061 49.0390888,39.9406061 C49.5178651,39.9406061 49.9187901,39.8546667 50.2422265,39.6828081 C50.5658645,39.5110101 50.8537712,39.2823434 51.1059867,38.9969293 L50.640189,38.5787273 C50.4331566,38.7926667 50.2052255,38.9645253 49.9561538,39.0943434 C49.707062,39.2240606 49.4076681,39.2887677 49.0584559,39.2887677 C48.8384651,39.2887677 48.6282888,39.251596 48.4276651,39.1770909 C48.2270816,39.1025253 48.0459459,38.9920606 47.8842781,38.8462626 C47.7225497,38.700303 47.5899023,38.5220404 47.4862753,38.3112323 C47.3828094,38.1003838 47.3181383,37.8588485 47.2923827,37.5864848 Z M45.7493837,38.958101 L45.2737513,38.5105859 C45.0732888,38.7246869 44.8484411,38.9029697 44.5993694,39.0456768 C44.3502977,39.1883232 44.0640235,39.2596162 43.7404661,39.2596162 C43.4752719,39.2596162 43.2310571,39.2095152 43.0078217,39.1089495 C42.7846668,39.0083838 42.590613,38.8705455 42.4255796,38.6921212 C42.2607679,38.513899 42.1312038,38.3047677 42.0374518,38.0663636 C41.9437199,37.8264242 41.896864,37.5719394 41.896864,37.2995354 C41.896864,37.0271717 41.9420069,36.7741818 42.0326554,36.5374949 C42.1230821,36.3024242 42.2493411,36.0948889 42.4110694,35.9165051 C42.5727977,35.7382424 42.7635867,35.600404 42.9835977,35.5000202 C43.2035885,35.3994545 43.4397018,35.3491717 43.6920181,35.3491717 C44.0350031,35.3491717 44.3245219,35.4237374 44.5606352,35.5728485 C44.7967485,35.7220808 45.0150263,35.9003636 45.21565,36.1078788 L45.7104883,35.5825253 C45.594064,35.4594141 45.4678051,35.3425859 45.3320138,35.232303 C45.1961217,35.1221818 45.0473518,35.0264848 44.8856235,34.9453333 C44.7238952,34.8643636 44.5459436,34.8010909 44.3518898,34.7556768 C44.157836,34.7102626 43.9410898,34.687697 43.7017319,34.687697 C43.3329712,34.687697 42.9916992,34.7573939 42.6779564,34.8968283 C42.3642135,35.0362222 42.0924696,35.2258788 41.8627651,35.4658182 C41.6331209,35.7058182 41.4535571,35.9863232 41.3241745,36.3072929 C41.1948321,36.6283838 41.1301207,36.9671515 41.1301207,37.3239798 C41.1301207,37.6804646 41.1948321,38.017697 41.3241745,38.3354545 C41.4535571,38.6532929 41.6331209,38.9305051 41.8627651,39.1671919 C42.0924696,39.4038586 42.3642135,39.5919798 42.6779564,39.7315354 C42.9916992,39.8708081 43.3329712,39.9406061 43.7017319,39.9406061 C44.1738778,39.9406061 44.5701676,39.8482424 44.8904804,39.6649899 C45.2106319,39.4801414 45.4970472,39.2450707 45.7493837,38.958101 Z M38.4713676,37.8200202 C38.4713676,37.4437778 38.522899,37.1114141 38.626526,36.8229091 C38.7300926,36.5342222 38.8722926,36.2926869 39.0535492,36.0981616 C39.2346446,35.9036162 39.4465339,35.7576566 39.6890357,35.6604242 C39.9316584,35.5631111 40.1888921,35.5145657 40.4605957,35.5145657 L40.5187372,35.5145657 L40.5187372,34.7071111 C40.2795003,34.7007071 40.0563656,34.7298586 39.8491518,34.7946667 C39.6421395,34.8595556 39.4513908,34.9550707 39.2766839,35.0816364 C39.1019972,35.2081818 38.9466776,35.3588485 38.8108862,35.5339798 C38.6750949,35.7090909 38.5618145,35.9003636 38.4713676,36.1078788 L38.4713676,34.7946667 L37.7239913,34.7946667 L37.7239913,39.823798 L38.4713676,39.823798 L38.4713676,37.8200202 Z M32.4353645,37.0319798 C32.4611202,36.7856364 32.5192819,36.5585051 32.6083383,36.3511515 C32.6989464,36.1436162 32.8153707,35.9634545 32.9561196,35.8112525 C33.0983196,35.6586465 33.261761,35.5388485 33.4476931,35.4512727 C33.6336454,35.3637172 33.8375339,35.3198586 34.0558722,35.3198586 C34.3064957,35.3198586 34.5264865,35.3668687 34.7156834,35.4610101 C34.9066135,35.5549899 35.0667901,35.6798182 35.1992763,35.8354747 C35.3303719,35.9911717 35.4338378,36.1727071 35.5082026,36.3802424 C35.5809954,36.5877778 35.6278916,36.8050303 35.6472587,37.0319798 L32.4353645,37.0319798 Z M32.4353645,37.5864848 L36.4043084,37.5864848 C36.4106969,37.5410707 36.414002,37.4989293 36.414002,37.460101 L36.414002,37.3530707 C36.414002,36.9833131 36.362249,36.6363434 36.2586824,36.3121616 C36.1550554,35.9879192 36.0032222,35.7058182 35.8025783,35.4658182 C35.6019546,35.2258788 35.356188,35.0362222 35.065077,34.8968283 C34.7739661,34.7573939 34.444,34.687697 34.0752393,34.687697 C33.7258457,34.687697 33.4039408,34.7556768 33.1097464,34.8919596 C32.8153707,35.0280808 32.5613212,35.2146061 32.3480212,35.4512727 C32.1344189,35.6879596 31.9678337,35.9669091 31.8481446,36.2878788 C31.7284758,36.6089697 31.6686615,36.9508889 31.6686615,37.3140808 C31.6686615,37.7033131 31.7365773,38.0599596 31.870837,38.384202 C32.0050161,38.7084242 32.1862929,38.9856566 32.4142844,39.2159192 C32.6422156,39.4461818 32.9075709,39.624404 33.2116,39.7509495 C33.5156895,39.8773333 33.839126,39.9406061 34.1821311,39.9406061 C34.6608469,39.9406061 35.0618122,39.8546667 35.3852084,39.6828081 C35.7088464,39.5110101 35.9968135,39.2823434 36.2489686,38.9969293 L35.7832112,38.5787273 C35.576199,38.7926667 35.3481872,38.9645253 35.0991156,39.0943434 C34.8500439,39.2240606 34.5507105,39.2887677 34.2014982,39.2887677 C33.9814872,39.2887677 33.7713311,39.251596 33.5706872,39.1770909 C33.3700635,39.1025253 33.1889681,38.9920606 33.0272398,38.8462626 C32.8655316,38.700303 32.7328842,38.5220404 32.629237,38.3112323 C32.5258518,38.1003838 32.4611202,37.8588485 32.4353645,37.5864848 Z M26.7292469,35.6896768 C26.5932944,35.4043232 26.3929528,35.1659192 26.1274765,34.9746667 C25.8623429,34.7832727 25.5259278,34.687697 25.1184531,34.687697 C24.9048508,34.687697 24.7173064,34.7135354 24.5554571,34.7654141 C24.3937288,34.8174141 24.2482842,34.8869293 24.1189015,34.9746667 C23.9894987,35.0622222 23.8746867,35.1643232 23.7743648,35.2810303 C23.6740429,35.3978586 23.582024,35.5177172 23.4978245,35.6409495 L23.4978245,34.7946667 L22.7505893,34.7946667 L22.7505893,39.823798 L23.4978245,39.823798 L23.4978245,36.9541616 C23.4978245,36.7206263 23.5334148,36.508404 23.6045349,36.3171313 C23.6757559,36.1257576 23.7743648,35.9587677 23.9004423,35.8160606 C24.0267013,35.6734141 24.1739194,35.5631111 24.3420362,35.4854141 C24.510274,35.4074141 24.6946745,35.3685859 24.895137,35.3685859 C25.2962232,35.3685859 25.6117395,35.5000202 25.8413837,35.7626869 C26.0710883,36.0251919 26.1857995,36.3932525 26.1857995,36.8666061 L26.1857995,39.823798 L26.9233008,39.823798 L26.9233008,36.9250101 C26.9233008,36.6784848 26.9606041,36.4581212 27.034989,36.263596 C27.109374,36.0690707 27.2096758,35.9052323 27.3357735,35.772202 C27.4618913,35.6392323 27.6090691,35.5388485 27.7773472,35.4706869 C27.9454842,35.4025455 28.1234357,35.3685859 28.3110809,35.3685859 C28.7186362,35.3685859 29.037236,35.5000202 29.2668801,35.7626869 C29.4965847,36.0251919 29.6114168,36.3997172 29.6114168,36.8861818 L29.6114168,39.823798 L30.3586319,39.823798 L30.3586319,36.7110707 C30.3586319,36.081899 30.1936388,35.5875758 29.8636324,35.2274949 C29.5337671,34.8675152 29.0776832,34.687697 28.4953202,34.687697 C28.2754906,34.687697 28.0764186,34.7135354 27.8985679,34.7654141 C27.7206365,34.8174141 27.5606212,34.8886465 27.4183204,34.9795354 C27.2759592,35.0701818 27.1481082,35.1772121 27.034989,35.3004444 C26.9217087,35.4237374 26.8198551,35.5533939 26.7292469,35.6896768 Z M17.5006967,35.6896768 C17.3647441,35.4043232 17.1642816,35.1659192 16.8989867,34.9746667 C16.6338128,34.7832727 16.297438,34.687697 15.8897214,34.687697 C15.6763005,34.687697 15.4888166,34.7135354 15.3269069,34.7654141 C15.1651786,34.8174141 15.0195727,34.8869293 14.8902304,34.9746667 C14.7610089,35.0622222 14.6461365,35.1643232 14.5458145,35.2810303 C14.4455128,35.3978586 14.3533528,35.5177172 14.2692742,35.6409495 L14.2692742,34.7946667 L13.5219383,34.7946667 L13.5219383,39.823798 L14.2692742,39.823798 L14.2692742,36.9541616 C14.2692742,36.7206263 14.3047436,36.508404 14.3759847,36.3171313 C14.4471048,36.1257576 14.5458145,35.9587677 14.6719526,35.8160606 C14.7980301,35.6734141 14.9451878,35.5631111 15.113486,35.4854141 C15.2816028,35.4074141 15.4660235,35.3685859 15.6666472,35.3685859 C16.0677334,35.3685859 16.3830079,35.5000202 16.6127327,35.7626869 C16.8424372,36.0251919 16.9572492,36.3932525 16.9572492,36.8666061 L16.9572492,39.823798 L17.6947707,39.823798 L17.6947707,36.9250101 C17.6947707,36.6784848 17.7319531,36.4581212 17.806338,36.263596 C17.8807028,36.0690707 17.9810247,35.9052323 18.1072837,35.772202 C18.2333612,35.6392323 18.3805793,35.5388485 18.5486962,35.4706869 C18.716813,35.4025455 18.8949459,35.3685859 19.0824298,35.3685859 C19.490086,35.3685859 19.8085043,35.5000202 20.0382089,35.7626869 C20.2679337,36.0251919 20.3827457,36.3997172 20.3827457,36.8861818 L20.3827457,39.823798 L21.1299607,39.823798 L21.1299607,36.7110707 C21.1299607,36.081899 20.9651087,35.5875758 20.6350821,35.2274949 C20.3052773,34.8675152 19.849012,34.687697 19.2668304,34.687697 C19.0468395,34.687697 18.8479288,34.7135354 18.6699168,34.7654141 C18.4921467,34.8174141 18.33195,34.8886465 18.1895888,34.9795354 C18.047288,35.0701818 17.9196184,35.1772121 17.806338,35.3004444 C17.6932189,35.4237374 17.5911839,35.5533939 17.5006967,35.6896768 Z M11.406411,37.3189495 C11.406411,37.5913535 11.3612883,37.844303 11.2706196,38.0809697 C11.1800316,38.3160404 11.0539541,38.5220404 10.8920444,38.6971515 C10.7303161,38.8722626 10.5362622,39.0083838 10.3098628,39.1089495 C10.0834834,39.2095152 9.83441173,39.2596162 9.5626477,39.2596162 C9.29753418,39.2596162 9.05158622,39.207798 8.82514643,39.1040808 C8.59874694,39.0002626 8.4029801,38.8624242 8.23810791,38.6872929 C8.07313495,38.5121818 7.94373214,38.3047677 7.84981888,38.0663636 C7.75606684,37.8264242 7.70923112,37.5719394 7.70923112,37.2995354 C7.70923112,37.0271717 7.7545352,36.7741818 7.84502245,36.5374949 C7.93563061,36.3024242 8.06015638,36.0948889 8.21874082,35.9165051 C8.37720434,35.7382424 8.56966607,35.600404 8.79594464,35.5000202 C9.02252551,35.3994545 9.27159719,35.3491717 9.54328061,35.3491717 C9.80847474,35.3491717 10.0544026,35.4010101 10.2807819,35.5048889 C10.5071814,35.6085253 10.7045605,35.7479192 10.8726773,35.9263636 C11.0409755,36.1045657 11.1720913,36.3121616 11.2658232,36.552101 C11.3595753,36.7920404 11.406411,37.0467475 11.406411,37.3189495 Z M12.1731745,37.304404 C12.1731745,36.9477374 12.1083421,36.6105051 11.9789393,36.2926869 C11.8495566,35.9749091 11.6684612,35.697697 11.4356732,35.4610101 C11.2027038,35.2243434 10.9261031,35.0362222 10.6059515,34.8968283 C10.2856388,34.7573939 9.93797832,34.687697 9.5626477,34.687697 C9.18092857,34.687697 8.83000332,34.7573939 8.50985179,34.8968283 C8.18955918,35.0362222 7.91293827,35.2258788 7.68015026,35.4658182 C7.44718087,35.7058182 7.26592423,35.9863232 7.13654158,36.3072929 C7.00719923,36.6283838 6.9424676,36.9671515 6.9424676,37.3239798 C6.9424676,37.6804646 7.00719923,38.017697 7.13654158,38.3354545 C7.26592423,38.6532929 7.44718087,38.9305051 7.68015026,39.1671919 C7.91293827,39.4038586 8.18794694,39.5919798 8.50483367,39.7315354 C8.82188163,39.8708081 9.16797015,39.9406061 9.54328061,39.9406061 C9.91861122,39.9406061 10.2678235,39.8708081 10.5912801,39.7315354 C10.9147166,39.5919798 11.1929901,39.4023232 11.4257781,39.1623232 C11.6588079,38.9223838 11.8416163,38.642 11.9742638,38.3209091 C12.1067298,38 12.1731745,37.6610505 12.1731745,37.304404 Z M6.13715128,38.7441616 L5.63261939,38.2479596 C5.30904184,38.5591313 4.97919668,38.8008687 4.64278163,38.9726465 C4.30636658,39.1445051 3.9052602,39.2304646 3.43952296,39.2304646 C3.06419235,39.2304646 2.71651173,39.1575152 2.39619898,39.0114747 C2.0760676,38.8656768 1.79775383,38.6662828 1.56164056,38.4133333 C1.32554745,38.160404 1.14118724,37.862 1.0085398,37.5183434 C0.876013265,37.1746869 0.809629082,36.8050303 0.809629082,36.4093939 C0.809629082,36.0139192 0.876013265,35.6458182 1.0085398,35.3053131 C1.14118724,34.9649293 1.32554745,34.6681212 1.56164056,34.4151717 C1.79775383,34.1623434 2.0760676,33.9645455 2.39619898,33.8218384 C2.71651173,33.6791313 3.06419235,33.607899 3.43952296,33.607899 C3.9052602,33.607899 4.30463342,33.6954545 4.63792474,33.8705859 C4.971075,34.045697 5.28328622,34.2693737 5.57433673,34.5417374 L6.09841709,33.9775556 C5.93011888,33.8154343 5.75543214,33.6678586 5.57433673,33.5348889 C5.39324133,33.4019192 5.19594286,33.2885253 4.98246148,33.1943838 C4.76885918,33.1004242 4.53760281,33.0273939 4.28853112,32.9755758 C4.0395199,32.9237576 3.75965434,32.8977576 3.4489949,32.8977576 C2.95091199,32.8977576 2.49166403,32.9901212 2.07121071,33.1749697 C1.65069694,33.3597778 1.28840536,33.6127677 0.984315816,33.9336768 C0.680226276,34.2547677 0.442420153,34.6292929 0.27103852,35.0571717 C0.0995964286,35.4854141 0.0138451531,35.9425051 0.0138451531,36.4288081 C0.0138451531,36.9217374 0.0995964286,37.3822222 0.27103852,37.8102828 C0.442420153,38.2382222 0.680226276,38.609596 0.984315816,38.9239192 C1.28840536,39.2386061 1.6474523,39.4867273 2.06149694,39.6680808 C2.47556173,39.849798 2.92840102,39.9406061 3.41997449,39.9406061 C3.73057347,39.9406061 4.01199082,39.9113535 4.2643676,39.8530505 C4.51670408,39.7946465 4.75279719,39.7134949 4.97262679,39.6098586 C5.1926176,39.5059798 5.39793699,39.3812929 5.5889074,39.2353333 C5.7798375,39.0895354 5.96246454,38.925697 6.13715128,38.7441616 L6.13715128,38.7441616 Z" id="Fill-3"></path>
                    <path d="M31.207237,6.68450505 L31.2071967,6.68335354 L31.207237,6.68450505 Z M38.1833401,7.82008081 L37.2017852,7.252 L33.7141972,5.23355556 L31.207237,6.68450505 L30.2267301,7.252 L26.7391421,9.27044444 L22.2690117,6.68335354 L27.9916952,3.37139394 L33.7141972,0.0594343434 L38.1833401,2.64589899 L39.4368806,3.37139394 L42.6524224,5.23355556 L45.1593827,6.68335354 L45.1593827,6.68450505 L40.6893128,9.27044444 L38.1833401,7.82008081 Z" id="Fill-4"></path>
                    <polygon id="Fill-5" points="40.6892724 17.3441414 40.6892724 13.3073131 40.6892724 9.27044444 45.1594431 6.68444444 45.1594431 13.3073131 45.1594431 19.9301414 45.1594431 19.9312323"></polygon>
                    <polygon id="Fill-6" points="26.7390816 17.3441414 22.2690117 19.9312323 27.9917556 23.2431717 33.7142577 26.5551919 38.1832796 23.9686667 36.9297592 23.2431717 33.7142577 21.3810707 31.207237 19.9312323 31.207237 19.9301414 30.2266696 19.3625859"></polygon>
                    <polygon id="Fill-7" points="26.7390816 13.3073131 26.7390816 17.3441414 22.2690117 19.9312323 26.7390816 17.3441414 22.2690117 19.9312323 22.2690117 19.8630303 22.2690117 13.3073131 22.2690117 6.68335354 26.7390816 9.27044444"></polygon>
                    <path d="M47.7926421,19.9301414 L47.792763,19.9312323 L47.7926421,19.9301414 Z M40.8165995,18.7945051 L41.7980939,19.3625859 L45.2856819,21.3810707 L47.7926421,19.9301414 L48.7732296,19.3625859 L52.2608176,17.3441414 L56.7308673,19.9312323 L51.0081839,23.2431717 L45.2856819,26.5551313 L40.8165995,23.9686667 L39.5630589,23.2431717 L36.3474566,21.3810707 L33.8405569,19.9312323 L33.8405569,19.9301414 L38.3106268,17.3441414 L40.8165995,18.7945051 Z" id="Fill-8"></path>
                    <polygon id="Fill-9" points="38.3106872 9.27044444 38.3106872 13.3073131 38.3106872 17.3441414 33.8404964 19.9301414 33.8404964 13.3073131 33.8404964 6.68444444"></polygon>
                    <polygon id="Fill-10" points="52.2607571 9.27044444 56.7309278 6.68335354 51.0081839 3.37139394 45.2857423 0.0593939394 40.816539 2.64589899 42.0701401 3.37139394 45.2857423 5.23349495 47.7927026 6.68335354 47.7927026 6.68444444 48.7731691 7.25206061"></polygon>
                    <polygon id="Fill-11" points="52.2607571 13.3073131 52.2607571 9.27044444 56.7309278 6.68335354 56.7309278 13.3073131 56.7309278 19.9312323 52.2607571 17.3441414"></polygon>
                </g>
            </g>
        </g>
    </g>
</svg>